<svg width="303" height="303" viewBox="0 0 303 303" fill="none" xmlns="http://www.w3.org/2000/svg">
<g clip-path="url(#clip0)">
<path d="M150.709 303C234.381 303 302.209 235.171 302.209 151.5C302.209 67.8289 234.381 0 150.709 0C67.0383 0 -0.790588 67.8289 -0.790588 151.5C-0.790588 235.171 67.0383 303 150.709 303Z" fill="#1C1B41"/>
<g opacity="0.2">
<g opacity="0.2">
<path opacity="0.2" d="M208.312 194.109C213.542 194.109 217.781 189.87 217.781 184.641C217.781 179.411 213.542 175.172 208.312 175.172C203.083 175.172 198.844 179.411 198.844 184.641C198.844 189.87 203.083 194.109 208.312 194.109Z" fill="#231F20"/>
</g>
<g opacity="0.2">
<path opacity="0.2" d="M208.312 250.922C213.542 250.922 217.781 246.683 217.781 241.453C217.781 236.224 213.542 231.984 208.312 231.984C203.083 231.984 198.844 236.224 198.844 241.453C198.844 246.683 203.083 250.922 208.312 250.922Z" fill="#231F20"/>
</g>
<g opacity="0.2">
<path opacity="0.2" d="M123.094 104.156H104.156V85.2188C104.156 79.9873 99.919 75.75 94.6875 75.75C89.456 75.75 85.2188 79.9873 85.2188 85.2188V104.156H66.2812C61.0498 104.156 56.8125 108.394 56.8125 113.625C56.8125 118.852 61.0498 123.094 66.2812 123.094H85.2188V142.031C85.2188 147.258 89.456 151.5 94.6875 151.5C99.919 151.5 104.156 147.258 104.156 142.031V123.094H123.094C128.325 123.094 132.562 118.852 132.562 113.625C132.562 108.394 128.325 104.156 123.094 104.156Z" fill="#231F20"/>
</g>
<g opacity="0.2">
<path opacity="0.2" d="M179.906 123.094H236.719C241.95 123.094 246.188 118.852 246.188 113.625C246.188 108.394 241.95 104.156 236.719 104.156H179.906C174.675 104.156 170.438 108.394 170.438 113.625C170.438 118.852 174.675 123.094 179.906 123.094Z" fill="#231F20"/>
</g>
<g opacity="0.2">
<path opacity="0.2" d="M236.719 203.578H179.906C174.675 203.578 170.438 207.815 170.438 213.047C170.438 218.274 174.675 222.516 179.906 222.516H236.719C241.95 222.516 246.188 218.274 246.188 213.047C246.188 207.815 241.95 203.578 236.719 203.578Z" fill="#231F20"/>
</g>
<g opacity="0.2">
<path opacity="0.2" d="M127.014 185.455C123.316 181.758 117.323 181.758 113.625 185.455L94.6875 204.393L75.75 185.455C72.0524 181.758 66.0587 181.758 62.3612 185.455C58.6636 189.153 58.6636 195.146 62.3612 198.844L81.2987 217.781L62.3612 236.719C58.6636 240.417 58.6636 246.41 62.3612 250.108C66.0587 253.805 72.0524 253.805 75.75 250.108L94.6875 231.17L113.625 250.108C117.323 253.805 123.316 253.805 127.014 250.108C130.711 246.41 130.711 240.417 127.014 236.719L108.076 217.781L127.014 198.844C130.711 195.146 130.711 189.153 127.014 185.455Z" fill="#231F20"/>
</g>
</g>
<path d="M208.312 184.641C213.542 184.641 217.781 180.401 217.781 175.172C217.781 169.942 213.542 165.703 208.312 165.703C203.083 165.703 198.844 169.942 198.844 175.172C198.844 180.401 203.083 184.641 208.312 184.641Z" fill="#EC6363"/>
<path d="M208.312 241.453C213.542 241.453 217.781 237.214 217.781 231.984C217.781 226.755 213.542 222.516 208.312 222.516C203.083 222.516 198.844 226.755 198.844 231.984C198.844 237.214 203.083 241.453 208.312 241.453Z" fill="#EC6363"/>
<path d="M132.562 104.156C132.562 109.388 128.325 113.625 123.094 113.625H66.2812C61.0498 113.625 56.8125 109.388 56.8125 104.156C56.8125 98.9248 61.0498 94.6875 66.2812 94.6875H123.094C128.325 94.6875 132.562 98.9248 132.562 104.156Z" fill="#427AA1"/>
<path d="M246.188 104.156C246.188 109.388 241.95 113.625 236.719 113.625H179.906C174.675 113.625 170.438 109.388 170.438 104.156C170.438 98.9248 174.675 94.6875 179.906 94.6875H236.719C241.95 94.6875 246.188 98.9248 246.188 104.156Z" fill="#EBF2FA"/>
<path d="M94.6875 142.031C89.456 142.031 85.2188 137.794 85.2188 132.562V75.75C85.2188 70.5185 89.456 66.2812 94.6875 66.2812C99.919 66.2812 104.156 70.5185 104.156 75.75V132.562C104.156 137.794 99.919 142.031 94.6875 142.031Z" fill="#427AA1"/>
<path d="M246.188 203.578C246.188 208.81 241.95 213.047 236.719 213.047H179.906C174.675 213.047 170.438 208.81 170.438 203.578C170.438 198.347 174.675 194.109 179.906 194.109H236.719C241.95 194.109 246.188 198.347 246.188 203.578Z" fill="#EC6363"/>
<path d="M127.014 240.639C123.316 244.337 117.323 244.337 113.625 240.639L62.3612 189.375C58.6636 185.678 58.6636 179.684 62.3612 175.986C66.0587 172.289 72.0524 172.289 75.75 175.986L127.014 227.25C130.711 230.948 130.711 236.941 127.014 240.639Z" fill="#ABC3DF"/>
<path d="M62.3612 240.639C58.6636 236.941 58.6636 230.948 62.3612 227.25L113.625 175.986C117.323 172.289 123.316 172.289 127.014 175.986C130.711 179.684 130.711 185.678 127.014 189.375L75.75 240.639C72.0524 244.337 66.0587 244.337 62.3612 240.639Z" fill="#ABC3DF"/>
</g>
<defs>
<clipPath id="clip0">
<rect width="303" height="303" fill="white"/>
</clipPath>
</defs>
</svg>
