<svg width="24" height="25" viewBox="0 0 24 25" fill="none" xmlns="http://www.w3.org/2000/svg">
<path d="M23.6831 15.6777L21.8298 14.1151C21.9175 13.5849 21.9627 13.0436 21.9627 12.5023C21.9627 11.9609 21.9175 11.4196 21.8298 10.8894L23.6831 9.32682C23.8229 9.2088 23.9229 9.05162 23.9699 8.87617C24.0169 8.70072 24.0087 8.51531 23.9462 8.34461L23.9208 8.27206C23.4105 6.86578 22.6465 5.56215 21.6656 4.42413L21.6147 4.36554C21.4957 4.22756 21.3371 4.12837 21.1598 4.08105C20.9825 4.03373 20.7949 4.04049 20.6215 4.10045L18.3211 4.90687C17.4723 4.22044 16.5244 3.67911 15.5001 3.29961L15.0559 0.927799C15.0224 0.749333 14.9346 0.585148 14.8042 0.457057C14.6738 0.328966 14.507 0.243032 14.3259 0.210673L14.2495 0.196721C12.7753 -0.0655737 11.2247 -0.0655737 9.75053 0.196721L9.67414 0.210673C9.49304 0.243032 9.32621 0.328966 9.19581 0.457057C9.06542 0.585148 8.97763 0.749333 8.94412 0.927799L8.49705 3.31078C7.48094 3.69035 6.53469 4.23139 5.69583 4.91245L3.37845 4.10045C3.20519 4.04002 3.01738 4.03301 2.83998 4.08036C2.66258 4.12771 2.50399 4.22717 2.38529 4.36554L2.33436 4.42413C1.35463 5.56295 0.590741 6.86637 0.0792323 8.27206L0.0537666 8.34461C-0.0735618 8.6934 0.0311305 9.08406 0.316912 9.32682L2.19288 10.9062C2.10517 11.4308 2.06273 11.9665 2.06273 12.4995C2.06273 13.0352 2.10517 13.571 2.19288 14.0928L0.316912 15.6721C0.177122 15.7901 0.0770718 15.9473 0.0300665 16.1228C-0.0169388 16.2982 -0.00867249 16.4836 0.0537666 16.6543L0.0792323 16.7269C0.591375 18.1332 1.34969 19.4308 2.33436 20.5748L2.38529 20.6334C2.50428 20.7714 2.66288 20.8706 2.84017 20.9179C3.01746 20.9652 3.20514 20.9584 3.37845 20.8985L5.69583 20.0865C6.53903 20.7701 7.48126 21.3115 8.49705 21.6882L8.94412 24.0711C8.97763 24.2496 9.06542 24.4138 9.19581 24.5419C9.32621 24.67 9.49304 24.7559 9.67414 24.7883L9.75053 24.8022C11.2383 25.0659 12.7617 25.0659 14.2495 24.8022L14.3259 24.7883C14.507 24.7559 14.6738 24.67 14.8042 24.5419C14.9346 24.4138 15.0224 24.2496 15.0559 24.0711L15.5001 21.6993C16.524 21.3208 17.4772 20.7777 18.3211 20.0921L20.6215 20.8985C20.7948 20.9589 20.9826 20.9659 21.16 20.9186C21.3374 20.8712 21.496 20.7718 21.6147 20.6334L21.6656 20.5748C22.6503 19.428 23.4086 18.1332 23.9208 16.7269L23.9462 16.6543C24.0736 16.3111 23.9689 15.9205 23.6831 15.6777ZM19.8208 11.2187C19.8915 11.64 19.9283 12.0725 19.9283 12.5051C19.9283 12.9376 19.8915 13.3701 19.8208 13.7914L19.634 14.9104L21.7477 16.6934C21.4273 17.4214 21.0228 18.1105 20.5423 18.7471L17.9165 17.8291L17.0281 18.549C16.3518 19.0959 15.5991 19.5256 14.7842 19.827L13.7062 20.226L13.1997 22.9327C12.4006 23.022 11.5938 23.022 10.7946 22.9327L10.2881 20.2204L9.21858 19.8158C8.41217 19.5145 7.66235 19.0847 6.99175 18.5406L6.10328 17.8179L3.46051 18.7443C2.97949 18.1053 2.5777 17.4161 2.25513 16.6906L4.39142 14.8908L4.2075 13.7747C4.13959 13.3589 4.10281 12.9292 4.10281 12.5051C4.10281 12.0781 4.13676 11.6512 4.2075 11.2354L4.39142 10.1193L2.25513 8.31949C2.57487 7.59121 2.97949 6.90477 3.46051 6.26578L6.10328 7.19218L6.99175 6.46948C7.66235 5.92535 8.41217 5.49564 9.21858 5.19428L10.291 4.79525L10.7975 2.08301C11.5925 1.99372 12.4046 1.99372 13.2025 2.08301L13.709 4.78967L14.7871 5.1887C15.5991 5.49006 16.3546 5.91977 17.0309 6.46669L17.9194 7.1866L20.5452 6.26857C21.0262 6.90757 21.428 7.59679 21.7505 8.32228L19.6369 10.1053L19.8208 11.2187ZM12.0028 7.31496C9.25254 7.31496 7.02287 9.51377 7.02287 12.226C7.02287 14.9383 9.25254 17.1371 12.0028 17.1371C14.7531 17.1371 16.9828 14.9383 16.9828 12.226C16.9828 9.51377 14.7531 7.31496 12.0028 7.31496ZM14.2438 14.436C13.9499 14.7267 13.6006 14.9572 13.216 15.1143C12.8314 15.2713 12.4191 15.3519 12.0028 15.3512C11.1568 15.3512 10.3617 15.0248 9.76185 14.436C9.46708 14.1461 9.23333 13.8017 9.07406 13.4224C8.91478 13.0431 8.83312 12.6365 8.83377 12.226C8.83377 11.3917 9.16482 10.6076 9.76185 10.016C10.3617 9.42448 11.1568 9.1008 12.0028 9.1008C12.8489 9.1008 13.644 9.42448 14.2438 10.016C14.5386 10.3059 14.7723 10.6504 14.9316 11.0296C15.0909 11.4089 15.1725 11.8155 15.1719 12.226C15.1719 13.0603 14.8408 13.8444 14.2438 14.436Z" fill="#427AA1"/>
</svg>
